<svg xmlns="http://www.w3.org/2000/svg" viewBox="0 0 640 160" role="img" aria-labelledby="title desc">
  <title id="title">Colormaq</title>
  <desc id="desc">Logotipo textual Colormaq em estilo corporativo.</desc>
  <defs>
    <linearGradient id="g" x1="0" y1="0" x2="1" y2="1">
      <stop offset="0" stop-color="#1398d6"/>
      <stop offset="0.52" stop-color="#0d4f9a"/>
      <stop offset="1" stop-color="#e62e2d"/>
    </linearGradient>
    <filter id="s" x="-10%" y="-20%" width="120%" height="140%">
      <feDropShadow dx="0" dy="8" stdDeviation="8" flood-color="#001023" flood-opacity=".26"/>
    </filter>
  </defs>
  <rect width="640" height="160" rx="32" fill="#fff" filter="url(#s)"/>
  <g transform="translate(36 28)">
    <path d="M24 56C24 25 49 0 80 0h58c31 0 56 25 56 56s-25 56-56 56H80c-31 0-56-25-56-56Z" fill="url(#g)"/>
    <path d="M90 24c-24 0-43 15-43 34 0 20 19 36 43 36 18 0 33-8 40-20l-25-7c-3 4-8 7-15 7-10 0-18-7-18-16s8-16 18-16c7 0 12 3 15 7l25-7c-7-11-22-18-40-18Z" fill="#fff"/>
    <text x="224" y="76" font-family="Arial, Helvetica, sans-serif" font-size="58" font-weight="800" fill="#103d75">Color<tspan fill="#e62e2d">maq</tspan></text>
    <text x="228" y="105" font-family="Arial, Helvetica, sans-serif" font-size="16" font-weight="700" letter-spacing="5" fill="#5a6f85">MONITORAMENTO</text>
  </g>
</svg>
